Coordinates
version=1
nRows=21
nColumns=12
inDegrees=yes

Units are S.I. units (second, meters, Newtons, ...)
Angles are in degrees

endheader
time	SC_y	SC_z	SC_x	AC_y	AC_z	AC_x	GH_y	GH_z	GH_yy	EL_x	PS_y
       0.0              -36.95          22.18          59.17          56.52          2.639          12.02         -75.79          84.21         -18.97          108.6          9.486
   0.02963              -36.95          22.18          59.17          56.52          2.636          12.01         -75.79           84.2         -18.98          108.6          9.489
   0.05926              -36.95          22.18          59.18          56.52          2.634          12.01          -75.8          84.18          -19.0          108.6          9.491
   0.08888              -36.96          22.18          59.18          56.51          2.631          12.01         -75.81          84.17         -19.01          108.6          9.494
    0.1185              -36.96          22.18          59.18          56.51          2.628          12.01         -75.82          84.15         -19.03          108.6          9.496
    0.1481              -36.96          22.18          59.19          56.51          2.625           12.0         -75.82          84.13         -19.04          108.6          9.499
    0.1778              -36.96          22.18          59.19           56.5          2.622           12.0         -75.83          84.11         -19.06          108.6          9.503
    0.2074              -36.96          22.18          59.19           56.5          2.618           12.0         -75.84          84.09         -19.08          108.6          9.506
     0.237              -36.96          22.18           59.2           56.5          2.614          11.99         -75.85          84.07          -19.1          108.6           9.51
    0.2667              -36.96          22.18           59.2          56.49           2.61          11.99         -75.86          84.04         -19.12          108.6          9.513
    0.2963              -36.96          22.18           59.2          56.49          2.606          11.99         -75.87          84.02         -19.15          108.6          9.518
    0.3259              -36.96          22.17          59.21          56.48          2.601          11.98         -75.89          83.99         -19.17          108.6          9.522
    0.3555              -36.96          22.17          59.21          56.48          2.596          11.98          -75.9          83.96          -19.2          108.6          9.527
    0.3852              -36.97          22.17          59.22          56.47          2.591          11.97         -75.92          83.93         -19.23          108.7          9.532
    0.4148              -36.97          22.17          59.22          56.47          2.585          11.97         -75.93          83.89         -19.27          108.7          9.538
    0.4444              -36.97          22.17          59.23          56.46          2.579          11.96         -75.95          83.85          -19.3          108.7          9.544
    0.4741              -36.97          22.17          59.24          56.46          2.572          11.96         -75.97          83.81         -19.34          108.7          9.551
    0.5037              -36.97          22.17          59.24          56.45          2.564          11.95         -75.99          83.77         -19.38          108.7          9.558
    0.5333              -36.97          22.17          59.25          56.44          2.556          11.94         -76.01          83.72         -19.43          108.7          9.566
    0.5629              -36.98          22.17          59.26          56.43          2.547          11.94         -76.03          83.67         -19.48          108.7          9.574
    0.5926              -36.98          22.17          59.27          56.42          2.537          11.93         -76.06          83.61         -19.53          108.7          9.584
